<?xml version="1.0" standalone="no"?>
<!DOCTYPE svg PUBLIC "-//W3C//DTD SVG 20010904//EN"
 "http://www.w3.org/TR/2001/REC-SVG-20010904/DTD/svg10.dtd">
<svg version="1.0" xmlns="http://www.w3.org/2000/svg"
 width="700.000000pt" height="700.000000pt" viewBox="0 0 700.000000 700.000000"
 preserveAspectRatio="xMidYMid meet">
<metadata>
Created by potrace 1.11, written by Peter Selinger 2001-2013
</metadata>
<g transform="translate(0.000000,700.000000) scale(0.100000,-0.100000)"
fill="#000000" stroke="none">
<path d="M0 6610 l0 -390 390 0 390 0 0 390 0 390 -390 0 -390 0 0 -390z"/>
<path d="M1550 6610 l0 -390 2335 0 2335 0 0 -1945 0 -1945 390 0 390 0 0
2335 0 2335 -2725 0 -2725 0 0 -390z"/>
<path d="M0 3890 l0 -1560 390 0 390 0 0 1560 0 1560 -390 0 -390 0 0 -1560z"/>
<path d="M1550 5055 l0 -395 390 0 390 0 2 -387 3 -388 388 -3 387 -2 0 -380
0 -380 -387 -2 -388 -3 -3 -387 -2 -388 -390 0 -390 0 0 -390 0 -390 -390 0
-390 0 0 -390 0 -390 -385 0 -385 0 0 -390 0 -390 390 0 390 0 0 385 0 385
385 0 385 0 0 -385 0 -385 395 0 395 0 0 385 0 385 385 0 385 0 0 -385 0 -385
390 0 390 0 0 385 0 385 385 0 385 0 0 -385 0 -385 395 0 395 0 0 385 0 385
385 0 385 0 0 -385 0 -385 390 0 390 0 0 390 0 390 -385 0 -385 0 0 390 0 390
-390 0 -390 0 0 390 0 390 -390 0 -390 0 -2 388 -3 387 -387 3 -388 2 0 380 0
380 388 2 387 3 3 388 2 387 390 0 390 0 0 395 0 395 -395 0 -395 0 0 -390 0
-390 -387 -2 -388 -3 -3 -387 -2 -388 -380 0 -380 0 -2 388 -3 387 -387 3
-388 2 0 390 0 390 -395 0 -395 0 0 -395z m2332 -2332 l3 -388 388 -3 387 -2
0 -385 0 -385 -387 -2 -388 -3 -3 -388 -2 -387 -380 0 -380 0 -2 388 -3 387
-387 3 -388 2 0 385 0 385 388 2 387 3 3 388 2 387 380 0 380 0 2 -387z
m-1552 -1558 l0 -385 -385 0 -385 0 0 385 0 385 385 0 385 0 0 -385z m3110 0
l0 -385 -385 0 -385 0 0 385 0 385 385 0 385 0 0 -385z"/>
</g>
</svg>
